<svg xmlns="http://www.w3.org/2000/svg" width="200" height="200" viewBox="0 0 200 200" fill="none" stroke="currentColor" stroke-linecap="round" stroke-linejoin="round">
  <path d="M100 30 Q 88 30 88 42 Q 88 54 100 54 Q 112 54 112 42 Q 112 30 100 30 Z" stroke-width="2.5"></path>
  <path d="M100 54 Q 80 60 78 95 Q 76 130 70 165 Q 75 170 80 165 Q 88 130 92 110 Q 96 130 102 165 Q 110 170 115 165 Q 122 130 122 95 Q 120 60 100 54 Z" stroke-width="2.5"></path>
  <path d="M85 38 Q 85 36 87 36 L 99 36 Q 100 36 100 37 Q 100 36 101 36 L 113 36 Q 115 36 115 38 L 115 42 Q 115 44 113 44 L 108 44 Q 100 44 100 43 Q 100 44 92 44 L 87 44 Q 85 44 85 42 Z" stroke-width="1.8"></path>
  <path d="M20 175 Q 60 168 100 175 T 180 173" stroke-width="2" opacity="0.7"></path>
  <path d="M20 185 Q 60 180 100 185 T 180 184" stroke-width="1.5" opacity="0.45"></path>
</svg>