<svg xmlns="http://www.w3.org/2000/svg" width="200" height="200" viewBox="0 0 200 200" fill="none" stroke="currentColor" stroke-linecap="round" stroke-linejoin="round">
  <path d="M30 50 L 75 40 L 130 55 L 175 45 L 175 165 L 130 175 L 75 160 L 30 170 Z" stroke-width="2.5"></path>
  <line x1="75" y1="40" x2="75" y2="160" stroke-width="1.5" opacity="0.5"></line>
  <line x1="130" y1="55" x2="130" y2="175" stroke-width="1.5" opacity="0.5"></line>
  <path d="M40 110 Q 70 90 100 100 Q 130 110 165 95" stroke-width="1.8" opacity="0.55"></path>
  <path d="M40 140 Q 70 125 100 130 Q 130 135 165 125" stroke-width="1.5" opacity="0.4"></path>
  <path d="M105 80 Q 95 80 95 90 Q 95 96 105 108 Q 115 96 115 90 Q 115 80 105 80 Z" stroke-width="2.5" fill="#0A1520"></path>
  <circle cx="105" cy="89" r="3" stroke-width="2"></circle>
</svg>