<svg xmlns="http://www.w3.org/2000/svg" width="200" height="200" viewBox="0 0 200 200" fill="none" stroke="currentColor" stroke-linecap="round" stroke-linejoin="round">
  <path d="M50 80 Q 50 65 70 65 L 95 65 Q 100 65 100 70 Q 100 65 105 65 L 130 65 Q 150 65 150 80 L 150 105 Q 150 120 130 120 L 115 120 Q 100 120 100 110 Q 100 120 85 120 L 70 120 Q 50 120 50 105 Z" stroke-width="2.5"></path>
  <path d="M48 78 L 38 70" stroke-width="2"></path>
  <circle cx="160" cy="55" r="6" stroke-width="2" opacity="0.7"></circle>
  <circle cx="170" cy="38" r="3.5" stroke-width="1.8" opacity="0.55"></circle>
  <circle cx="155" cy="35" r="2.5" stroke-width="1.5" opacity="0.4"></circle>
  <path d="M20 150 Q 50 142 80 148 Q 110 154 140 148 Q 165 144 185 150" stroke-width="2" opacity="0.7"></path>
  <path d="M20 165 Q 50 158 80 162 Q 110 166 140 162 Q 165 158 185 165" stroke-width="1.5" opacity="0.5"></path>
  <path d="M20 178 Q 60 173 100 176 Q 140 178 180 175" stroke-width="1.2" opacity="0.3"></path>
</svg>